<svg xmlns="http://www.w3.org/2000/svg" version="1.1" xmlns:xlink="http://www.w3.org/1999/xlink" xmlns:svgjs="http://svgjs.dev/svgjs" width="1000" height="1000" viewBox="0 0 1000 1000"><rect width="1000" height="1000" fill="#ffffff"></rect><g transform="matrix(0.7,0,0,0.7,149.57575757575756,438.81930609223207)"><svg viewBox="0 0 396 70" data-background-color="#282634" preserveAspectRatio="xMidYMid meet" height="176" width="1000" xmlns="http://www.w3.org/2000/svg" xmlns:xlink="http://www.w3.org/1999/xlink"><g id="tight-bounds" transform="matrix(1,0,0,1,0.2400000000000091,-0.23824209785914263)"><svg viewBox="0 0 395.52 70.4764841957183" height="70.4764841957183" width="395.52"><g><svg viewBox="0 0 395.52 70.4764841957183" height="70.4764841957183" width="395.52"><g><svg viewBox="0 0 397.4975999999999 70.82886661669689" height="70.4764841957183" width="395.52"><g><rect width="397.4975999999999" height="2.1693946362260803" x="0" y="38.92443141930502" fill="#000000" opacity="1" stroke-width="0" stroke="transparent" fill-opacity="1" class="rect-o-0" data-fill-palette-color="secondary" rx="1%" id="o-0" data-palette-color="#dcdcdc"></rect></g><g transform="matrix(1,0,0,1,0.9887999999999693,46.77286960586116)"><svg viewBox="0 0 395.52 24.05599701083572" height="24.05599701083572" width="395.52"><g><svg viewBox="0 0 395.52 24.05599701083572" height="24.05599701083572" width="395.52"><g><svg viewBox="0 0 395.52 24.05599701083572" height="24.05599701083572" width="395.52"><g transform="matrix(1,0,0,1,0,0)"><svg width="395.52" viewBox="2.25 -36.22999954223633 602.1300048828125 36.630001068115234" height="24.05599701083572" data-palette-color="#ff4057"><path d="M29.6-7.4L29.6-7.4Q30-7.4 30.33-7.08L30.33-7.08 32.23-5Q30.03-2.45 26.89-1.03 23.75 0.4 19.33 0.4L19.33 0.4Q15.45 0.4 12.3-0.94 9.15-2.27 6.93-4.69 4.7-7.1 3.48-10.48 2.25-13.85 2.25-17.9L2.25-17.9Q2.25-21.95 3.56-25.33 4.88-28.7 7.25-31.13 9.63-33.55 12.94-34.89 16.25-36.23 20.25-36.23L20.25-36.23Q24.2-36.23 27.06-35 29.93-33.77 32.15-31.68L32.15-31.68 30.58-29.45Q30.4-29.2 30.18-29.04 29.95-28.88 29.53-28.88L29.53-28.88Q29.2-28.88 28.84-29.11 28.48-29.35 27.98-29.7 27.48-30.05 26.8-30.45 26.13-30.85 25.2-31.2 24.28-31.55 23.05-31.79 21.83-32.02 20.23-32.02L20.23-32.02Q17.35-32.02 14.96-31.04 12.58-30.05 10.85-28.23 9.13-26.4 8.16-23.78 7.2-21.15 7.2-17.9L7.2-17.9Q7.2-14.55 8.16-11.93 9.13-9.3 10.79-7.49 12.45-5.68 14.73-4.73 17-3.78 19.63-3.78L19.63-3.78Q21.23-3.78 22.5-3.96 23.78-4.15 24.86-4.55 25.95-4.95 26.89-5.56 27.83-6.18 28.78-7.03L28.78-7.03Q29.2-7.4 29.6-7.4ZM71.87-17.9L71.87-17.9Q71.87-13.88 70.6-10.51 69.32-7.15 67-4.73 64.67-2.3 61.41-0.96 58.15 0.38 54.2 0.38L54.2 0.38Q50.25 0.38 47-0.96 43.75-2.3 41.42-4.73 39.1-7.15 37.82-10.51 36.55-13.88 36.55-17.9L36.55-17.9Q36.55-21.93 37.82-25.29 39.1-28.65 41.42-31.09 43.75-33.52 47-34.88 50.25-36.23 54.2-36.23L54.2-36.23Q58.15-36.23 61.41-34.88 64.67-33.52 67-31.09 69.32-28.65 70.6-25.29 71.87-21.93 71.87-17.9ZM66.9-17.9L66.9-17.9Q66.9-21.2 66-23.83 65.1-26.45 63.45-28.26 61.8-30.08 59.45-31.05 57.1-32.02 54.2-32.02L54.2-32.02Q51.32-32.02 48.97-31.05 46.62-30.08 44.96-28.26 43.3-26.45 42.4-23.83 41.5-21.2 41.5-17.9L41.5-17.9Q41.5-14.6 42.4-11.99 43.3-9.38 44.96-7.56 46.62-5.75 48.97-4.79 51.32-3.83 54.2-3.83L54.2-3.83Q57.1-3.83 59.45-4.79 61.8-5.75 63.45-7.56 65.1-9.38 66-11.99 66.9-14.6 66.9-17.9ZM96.12-12.95L96.12-12.95Q96.47-12.35 96.73-11.69 97-11.03 97.25-10.35L97.25-10.35Q97.5-11.05 97.77-11.69 98.05-12.33 98.4-12.98L98.4-12.98 110.52-35Q110.85-35.58 111.2-35.7 111.55-35.83 112.2-35.83L112.2-35.83 115.77-35.83 115.77 0 111.52 0 111.52-26.33Q111.52-26.85 111.55-27.45 111.57-28.05 111.62-28.68L111.62-28.68 99.35-6.28Q98.72-5.15 97.6-5.15L97.6-5.15 96.9-5.15Q95.77-5.15 95.15-6.28L95.15-6.28 82.6-28.75Q82.67-28.1 82.71-27.48 82.75-26.85 82.75-26.33L82.75-26.33 82.75 0 78.5 0 78.5-35.83 82.07-35.83Q82.72-35.83 83.07-35.7 83.42-35.58 83.75-35L83.75-35 96.12-12.95ZM135.57-13.4L129.82-13.4 129.82 0 124.99 0 124.99-35.83 135.57-35.83Q138.97-35.83 141.48-35.04 143.99-34.25 145.64-32.8 147.29-31.35 148.11-29.3 148.92-27.25 148.92-24.73L148.92-24.73Q148.92-22.23 148.04-20.15 147.17-18.07 145.48-16.57 143.79-15.08 141.29-14.24 138.79-13.4 135.57-13.4L135.57-13.4ZM129.82-32L129.82-17.25 135.57-17.25Q137.64-17.25 139.23-17.8 140.82-18.35 141.89-19.34 142.97-20.33 143.52-21.7 144.07-23.08 144.07-24.73L144.07-24.73Q144.07-28.15 141.96-30.08 139.84-32 135.57-32L135.57-32 129.82-32ZM164.04-14.95L160.37-14.95 160.37 0 155.54 0 155.54-35.83 165.67-35.83Q169.07-35.83 171.54-35.14 174.02-34.45 175.63-33.15 177.24-31.85 178.02-30.01 178.79-28.18 178.79-25.9L178.79-25.9Q178.79-24 178.19-22.35 177.59-20.7 176.45-19.39 175.32-18.07 173.68-17.15 172.04-16.23 169.97-15.75L169.97-15.75Q170.87-15.23 171.57-14.23L171.57-14.23 182.02 0 177.72 0Q176.39 0 175.77-1.03L175.77-1.03 166.47-13.83Q166.04-14.43 165.54-14.69 165.04-14.95 164.04-14.95L164.04-14.95ZM160.37-32L160.37-18.48 165.44-18.48Q167.57-18.48 169.18-18.99 170.79-19.5 171.88-20.44 172.97-21.38 173.52-22.68 174.07-23.98 174.07-25.55L174.07-25.55Q174.07-28.75 171.95-30.38 169.84-32 165.67-32L165.67-32 160.37-32ZM187.24-35.83L209.31-35.83 209.31-31.88 192.11-31.88 192.11-19.98 206.04-19.98 206.04-16.18 192.11-16.18 192.11-3.95 209.31-3.95 209.31 0 187.24 0 187.24-35.83ZM235.81-32.52L234.64-30.23Q234.41-29.85 234.16-29.66 233.91-29.48 233.51-29.48L233.51-29.48Q233.09-29.48 232.52-29.9 231.96-30.33 231.1-30.84 230.24-31.35 229.02-31.78 227.81-32.2 226.09-32.2L226.09-32.2Q224.46-32.2 223.21-31.76 221.96-31.33 221.12-30.58 220.29-29.83 219.86-28.81 219.44-27.8 219.44-26.63L219.44-26.63Q219.44-25.13 220.17-24.14 220.91-23.15 222.12-22.45 223.34-21.75 224.87-21.24 226.41-20.73 228.02-20.18 229.64-19.63 231.17-18.94 232.71-18.25 233.92-17.2 235.14-16.15 235.87-14.63 236.61-13.1 236.61-10.88L236.61-10.88Q236.61-8.53 235.81-6.46 235.01-4.4 233.47-2.88 231.94-1.35 229.7-0.48 227.46 0.4 224.61 0.4L224.61 0.4Q221.14 0.4 218.27-0.86 215.41-2.13 213.39-4.28L213.39-4.28 214.79-6.58Q214.99-6.85 215.27-7.04 215.56-7.23 215.91-7.23L215.91-7.23Q216.44-7.23 217.11-6.66 217.79-6.1 218.8-5.43 219.81-4.75 221.25-4.19 222.69-3.63 224.76-3.63L224.76-3.63Q226.49-3.63 227.84-4.1 229.19-4.58 230.12-5.44 231.06-6.3 231.56-7.5 232.06-8.7 232.06-10.18L232.06-10.18Q232.06-11.8 231.32-12.84 230.59-13.88 229.39-14.58 228.19-15.28 226.65-15.76 225.11-16.25 223.5-16.76 221.89-17.28 220.35-17.95 218.81-18.63 217.61-19.7 216.41-20.78 215.67-22.39 214.94-24 214.94-26.38L214.94-26.38Q214.94-28.28 215.67-30.05 216.41-31.83 217.81-33.2 219.21-34.58 221.27-35.4 223.34-36.23 226.01-36.23L226.01-36.23Q229.01-36.23 231.49-35.27 233.96-34.33 235.81-32.52L235.81-32.52ZM262.31-32.52L261.13-30.23Q260.91-29.85 260.66-29.66 260.41-29.48 260.01-29.48L260.01-29.48Q259.58-29.48 259.02-29.9 258.46-30.33 257.6-30.84 256.73-31.35 255.52-31.78 254.31-32.2 252.58-32.2L252.58-32.2Q250.96-32.2 249.71-31.76 248.46-31.33 247.62-30.58 246.78-29.83 246.36-28.81 245.93-27.8 245.93-26.63L245.93-26.63Q245.93-25.13 246.67-24.14 247.41-23.15 248.62-22.45 249.83-21.75 251.37-21.24 252.91-20.73 254.52-20.18 256.13-19.63 257.67-18.94 259.21-18.25 260.42-17.2 261.63-16.15 262.37-14.63 263.11-13.1 263.11-10.88L263.11-10.88Q263.11-8.53 262.31-6.46 261.51-4.4 259.97-2.88 258.43-1.35 256.2-0.48 253.96 0.4 251.11 0.4L251.11 0.4Q247.63 0.4 244.77-0.86 241.91-2.13 239.88-4.28L239.88-4.28 241.28-6.58Q241.48-6.85 241.77-7.04 242.06-7.23 242.41-7.23L242.41-7.23Q242.93-7.23 243.61-6.66 244.28-6.1 245.3-5.43 246.31-4.75 247.75-4.19 249.18-3.63 251.26-3.63L251.26-3.63Q252.98-3.63 254.33-4.1 255.68-4.58 256.62-5.44 257.56-6.3 258.06-7.5 258.56-8.7 258.56-10.18L258.56-10.18Q258.56-11.8 257.82-12.84 257.08-13.88 255.88-14.58 254.68-15.28 253.15-15.76 251.61-16.25 250-16.76 248.38-17.28 246.85-17.95 245.31-18.63 244.11-19.7 242.91-20.78 242.17-22.39 241.43-24 241.43-26.38L241.43-26.38Q241.43-28.28 242.17-30.05 242.91-31.83 244.31-33.2 245.71-34.58 247.77-35.4 249.83-36.23 252.51-36.23L252.51-36.23Q255.51-36.23 257.98-35.27 260.46-34.33 262.31-32.52L262.31-32.52ZM309.98-17.9L309.98-17.9Q309.98-13.88 308.7-10.58 307.43-7.28 305.1-4.93 302.78-2.58 299.53-1.29 296.28 0 292.33 0L292.33 0 278.93 0 278.93-35.83 292.33-35.83Q296.28-35.83 299.53-34.54 302.78-33.25 305.1-30.89 307.43-28.53 308.7-25.23 309.98-21.93 309.98-17.9ZM305-17.9L305-17.9Q305-21.2 304.1-23.8 303.2-26.4 301.55-28.2 299.9-30 297.55-30.95 295.2-31.9 292.33-31.9L292.33-31.9 283.8-31.9 283.8-3.93 292.33-3.93Q295.2-3.93 297.55-4.88 299.9-5.83 301.55-7.61 303.2-9.4 304.1-12 305-14.6 305-17.9ZM316.58-35.83L338.65-35.83 338.65-31.88 321.45-31.88 321.45-19.98 335.38-19.98 335.38-16.18 321.45-16.18 321.45-3.95 338.65-3.95 338.65 0 316.58 0 316.58-35.83ZM370.87-7.4L370.87-7.4Q371.27-7.4 371.6-7.08L371.6-7.08 373.5-5Q371.3-2.45 368.16-1.03 365.02 0.4 360.6 0.4L360.6 0.4Q356.72 0.4 353.57-0.94 350.42-2.27 348.2-4.69 345.97-7.1 344.75-10.48 343.52-13.85 343.52-17.9L343.52-17.9Q343.52-21.95 344.84-25.33 346.15-28.7 348.52-31.13 350.9-33.55 354.21-34.89 357.52-36.23 361.52-36.23L361.52-36.23Q365.47-36.23 368.34-35 371.2-33.77 373.42-31.68L373.42-31.68 371.85-29.45Q371.67-29.2 371.45-29.04 371.22-28.88 370.8-28.88L370.8-28.88Q370.47-28.88 370.11-29.11 369.75-29.35 369.25-29.7 368.75-30.05 368.07-30.45 367.4-30.85 366.47-31.2 365.55-31.55 364.32-31.79 363.1-32.02 361.5-32.02L361.5-32.02Q358.62-32.02 356.24-31.04 353.85-30.05 352.12-28.23 350.4-26.4 349.44-23.78 348.47-21.15 348.47-17.9L348.47-17.9Q348.47-14.55 349.44-11.93 350.4-9.3 352.06-7.49 353.72-5.68 356-4.73 358.27-3.78 360.9-3.78L360.9-3.78Q362.5-3.78 363.77-3.96 365.05-4.15 366.14-4.55 367.22-4.95 368.16-5.56 369.1-6.18 370.05-7.03L370.05-7.03Q370.47-7.4 370.87-7.4ZM413.15-17.9L413.15-17.9Q413.15-13.88 411.87-10.51 410.6-7.15 408.27-4.73 405.95-2.3 402.68-0.96 399.42 0.38 395.47 0.38L395.47 0.38Q391.52 0.38 388.27-0.96 385.02-2.3 382.7-4.73 380.37-7.15 379.1-10.51 377.82-13.88 377.82-17.9L377.82-17.9Q377.82-21.93 379.1-25.29 380.37-28.65 382.7-31.09 385.02-33.52 388.27-34.88 391.52-36.23 395.47-36.23L395.47-36.23Q399.42-36.23 402.68-34.88 405.95-33.52 408.27-31.09 410.6-28.65 411.87-25.29 413.15-21.93 413.15-17.9ZM408.17-17.9L408.17-17.9Q408.17-21.2 407.27-23.83 406.37-26.45 404.72-28.26 403.07-30.08 400.72-31.05 398.37-32.02 395.47-32.02L395.47-32.02Q392.6-32.02 390.25-31.05 387.9-30.08 386.23-28.26 384.57-26.45 383.67-23.83 382.77-21.2 382.77-17.9L382.77-17.9Q382.77-14.6 383.67-11.99 384.57-9.38 386.23-7.56 387.9-5.75 390.25-4.79 392.6-3.83 395.47-3.83L395.47-3.83Q398.37-3.83 400.72-4.79 403.07-5.75 404.72-7.56 406.37-9.38 407.27-11.99 408.17-14.6 408.17-17.9ZM437.39-12.95L437.39-12.95Q437.74-12.35 438.01-11.69 438.27-11.03 438.52-10.35L438.52-10.35Q438.77-11.05 439.04-11.69 439.32-12.33 439.67-12.98L439.67-12.98 451.79-35Q452.12-35.58 452.47-35.7 452.82-35.83 453.47-35.83L453.47-35.83 457.04-35.83 457.04 0 452.79 0 452.79-26.33Q452.79-26.85 452.82-27.45 452.84-28.05 452.89-28.68L452.89-28.68 440.62-6.28Q439.99-5.15 438.87-5.15L438.87-5.15 438.17-5.15Q437.04-5.15 436.42-6.28L436.42-6.28 423.87-28.75Q423.94-28.1 423.98-27.48 424.02-26.85 424.02-26.33L424.02-26.33 424.02 0 419.77 0 419.77-35.83 423.34-35.83Q423.99-35.83 424.34-35.7 424.69-35.58 425.02-35L425.02-35 437.39-12.95ZM476.84-13.4L471.09-13.4 471.09 0 466.27 0 466.27-35.83 476.84-35.83Q480.24-35.83 482.75-35.04 485.27-34.25 486.92-32.8 488.57-31.35 489.38-29.3 490.19-27.25 490.19-24.73L490.19-24.73Q490.19-22.23 489.32-20.15 488.44-18.07 486.75-16.57 485.07-15.08 482.57-14.24 480.07-13.4 476.84-13.4L476.84-13.4ZM471.09-32L471.09-17.25 476.84-17.25Q478.92-17.25 480.5-17.8 482.09-18.35 483.17-19.34 484.24-20.33 484.79-21.7 485.34-23.08 485.34-24.73L485.34-24.73Q485.34-28.15 483.23-30.08 481.12-32 476.84-32L476.84-32 471.09-32ZM505.31-14.95L501.64-14.95 501.64 0 496.81 0 496.81-35.83 506.94-35.83Q510.34-35.83 512.81-35.14 515.29-34.45 516.9-33.15 518.51-31.85 519.29-30.01 520.06-28.18 520.06-25.9L520.06-25.9Q520.06-24 519.46-22.35 518.86-20.7 517.73-19.39 516.59-18.07 514.95-17.15 513.31-16.23 511.24-15.75L511.24-15.75Q512.14-15.23 512.84-14.23L512.84-14.23 523.29 0 518.99 0Q517.66 0 517.04-1.03L517.04-1.03 507.74-13.83Q507.31-14.43 506.81-14.69 506.31-14.95 505.31-14.95L505.31-14.95ZM501.64-32L501.64-18.48 506.71-18.48Q508.84-18.48 510.45-18.99 512.06-19.5 513.15-20.44 514.24-21.38 514.79-22.68 515.34-23.98 515.34-25.55L515.34-25.55Q515.34-28.75 513.23-30.38 511.11-32 506.94-32L506.94-32 501.64-32ZM528.51-35.83L550.59-35.83 550.59-31.88 533.39-31.88 533.39-19.98 547.31-19.98 547.31-16.18 533.39-16.18 533.39-3.95 550.59-3.95 550.59 0 528.51 0 528.51-35.83ZM577.08-32.52L575.91-30.23Q575.68-29.85 575.43-29.66 575.18-29.48 574.78-29.48L574.78-29.48Q574.36-29.48 573.79-29.9 573.23-30.33 572.37-30.84 571.51-31.35 570.29-31.78 569.08-32.2 567.36-32.2L567.36-32.2Q565.73-32.2 564.48-31.76 563.23-31.33 562.39-30.58 561.56-29.83 561.13-28.81 560.71-27.8 560.71-26.63L560.71-26.63Q560.71-25.13 561.44-24.14 562.18-23.15 563.39-22.45 564.61-21.75 566.14-21.24 567.68-20.73 569.29-20.18 570.91-19.63 572.44-18.94 573.98-18.25 575.19-17.2 576.41-16.15 577.14-14.63 577.88-13.1 577.88-10.88L577.88-10.88Q577.88-8.53 577.08-6.46 576.28-4.4 574.75-2.88 573.21-1.35 570.97-0.48 568.73 0.4 565.88 0.4L565.88 0.4Q562.41 0.4 559.54-0.86 556.68-2.13 554.66-4.28L554.66-4.28 556.06-6.58Q556.26-6.85 556.54-7.04 556.83-7.23 557.18-7.23L557.18-7.23Q557.71-7.23 558.38-6.66 559.06-6.1 560.07-5.43 561.08-4.75 562.52-4.19 563.96-3.63 566.03-3.63L566.03-3.63Q567.76-3.63 569.11-4.1 570.46-4.58 571.39-5.44 572.33-6.3 572.83-7.5 573.33-8.7 573.33-10.18L573.33-10.18Q573.33-11.8 572.6-12.84 571.86-13.88 570.66-14.58 569.46-15.28 567.92-15.76 566.38-16.25 564.77-16.76 563.16-17.28 561.62-17.95 560.08-18.63 558.88-19.7 557.68-20.78 556.94-22.39 556.21-24 556.21-26.38L556.21-26.38Q556.21-28.28 556.94-30.05 557.68-31.83 559.08-33.2 560.48-34.58 562.54-35.4 564.61-36.23 567.28-36.23L567.28-36.23Q570.28-36.23 572.76-35.27 575.23-34.33 577.08-32.52L577.08-32.52ZM603.58-32.52L602.4-30.23Q602.18-29.85 601.93-29.66 601.68-29.48 601.28-29.48L601.28-29.48Q600.85-29.48 600.29-29.9 599.73-30.33 598.87-30.84 598-31.35 596.79-31.78 595.58-32.2 593.85-32.2L593.85-32.2Q592.23-32.2 590.98-31.76 589.73-31.33 588.89-30.58 588.05-29.83 587.63-28.81 587.2-27.8 587.2-26.63L587.2-26.63Q587.2-25.13 587.94-24.14 588.68-23.15 589.89-22.45 591.1-21.75 592.64-21.24 594.18-20.73 595.79-20.18 597.4-19.63 598.94-18.94 600.48-18.25 601.69-17.2 602.9-16.15 603.64-14.63 604.38-13.1 604.38-10.88L604.38-10.88Q604.38-8.53 603.58-6.46 602.78-4.4 601.24-2.88 599.7-1.35 597.47-0.48 595.23 0.4 592.38 0.4L592.38 0.4Q588.9 0.4 586.04-0.86 583.18-2.13 581.15-4.28L581.15-4.28 582.55-6.58Q582.75-6.85 583.04-7.04 583.33-7.23 583.68-7.23L583.68-7.23Q584.2-7.23 584.88-6.66 585.55-6.1 586.57-5.43 587.58-4.75 589.02-4.19 590.45-3.63 592.53-3.63L592.53-3.63Q594.25-3.63 595.6-4.1 596.95-4.58 597.89-5.44 598.83-6.3 599.33-7.5 599.83-8.7 599.83-10.18L599.83-10.18Q599.83-11.8 599.09-12.84 598.35-13.88 597.15-14.58 595.95-15.28 594.42-15.76 592.88-16.25 591.27-16.76 589.65-17.28 588.12-17.95 586.58-18.63 585.38-19.7 584.18-20.78 583.44-22.39 582.7-24 582.7-26.38L582.7-26.38Q582.7-28.28 583.44-30.05 584.18-31.83 585.58-33.2 586.98-34.58 589.04-35.4 591.1-36.23 593.78-36.23L593.78-36.23Q596.78-36.23 599.25-35.27 601.73-34.33 603.58-32.52L603.58-32.52Z" opacity="1" transform="matrix(1,0,0,1,0,0)" fill="#000000" class="undefined-text-0" data-fill-palette-color="primary" id="text-0"></path></svg></g></svg></g></svg></g></svg></g><g transform="matrix(1,0,0,1,178.2679131667188,0)"><svg viewBox="0 0 40.961773666562266 33.24538786897497" height="33.24538786897497" width="40.961773666562266"><g><svg xmlns="http://www.w3.org/2000/svg" xmlns:xlink="http://www.w3.org/1999/xlink" version="1.1" x="8.000000000000002" y="0" viewBox="16.299999237060547 5.099999904632568 67.5 89.90000915527344" style="enable-background:new 0 0 100 100;" xml:space="preserve" height="33.24538786897497" width="24.961773666562262" class="icon-icon-0" data-fill-palette-color="accent" id="icon-0"><g fill="#dcdcdc" data-fill-palette-color="accent"><path d="M83.7 26.3c0-0.8-0.3-1.6-0.9-2.2L66 6.1c-0.6-0.7-1.5-1-2.4-1h-42c-2.9 0-5.3 2.4-5.3 5.3v79.3c0 2.9 2.4 5.3 5.3 5.3h56.9c2.9 0 5.3-2.4 5.3-5.3L83.7 26.3zM40 74.8c0 0.8-0.4 1.2-1.2 1.2h-7.4c-0.8 0-1.2-0.4-1.2-1.2V62.1c0-0.8 0.4-1.2 1.2-1.2h7.1c0.8 0 1.2 0.4 1.2 1.2v0.8c0 0.8-0.4 1.2-1.2 1.2H34v2.7h3.4c0.8 0 1.2 0.4 1.2 1.2v0.8c0 0.8-0.4 1.2-1.2 1.2H34v2.8h4.9c0.8 0 1.2 0.4 1.2 1.2V74.8zM54.7 74.5c0.5 0.8 0.2 1.4-0.8 1.4h-1.5c-0.6 0-1-0.3-1.4-0.8l-1.3-2.3c-0.5-0.9-0.9-1.9-0.9-1.9h0c0 0-0.4 0.9-0.9 1.9l-1.3 2.3c-0.3 0.6-0.7 0.8-1.4 0.8h-1.5c-0.9 0-1.3-0.6-0.8-1.4l3.7-6.1-3.7-6.2c-0.5-0.8-0.1-1.4 0.8-1.4h1.6c0.6 0 1 0.3 1.4 0.8l1.2 2.3c0.5 0.9 0.9 1.9 0.9 1.9h0c0 0 0.4-1 0.9-1.9l1.2-2.3c0.3-0.6 0.7-0.8 1.4-0.8h1.6c0.9 0 1.3 0.6 0.8 1.4L51 68.5 54.7 74.5zM68.1 74.8c0 0.8-0.4 1.2-1.2 1.2h-7.4c-0.8 0-1.2-0.4-1.2-1.2V62.1c0-0.8 0.4-1.2 1.2-1.2h7.1c0.8 0 1.2 0.4 1.2 1.2v0.8c0 0.8-0.4 1.2-1.2 1.2h-4.6v2.7h3.4c0.8 0 1.2 0.4 1.2 1.2v0.8c0 0.8-0.4 1.2-1.2 1.2h-3.4v2.8H67c0.8 0 1.2 0.4 1.2 1.2V74.8zM79.1 27.3h-11c-2.9 0-5.3-2.4-5.3-5.3V10.2c0-0.3 0.4-0.4 0.6-0.2l16 16.7C79.5 26.9 79.4 27.3 79.1 27.3z" fill="#000000" data-fill-palette-color="accent"></path></g></svg></g></svg></g><g><rect width="101.73479316671886" height="2.1693946362260803" y="30.075993232748893" x="219.22968683328108" fill="#000000" data-fill-palette-color="secondary"></rect><rect width="101.73479316671886" height="2.1693946362260803" y="30.075993232748893" x="76.53311999999997" fill="#000000" data-fill-palette-color="secondary"></rect></g></svg></g></svg></g><defs></defs></svg><rect width="395.52" height="70.4764841957183" fill="none" stroke="none" visibility="hidden"></rect></g></svg></g></svg>